<svg width="39" height="39" viewBox="0 0 39 39" fill="none" xmlns="http://www.w3.org/2000/svg">
<path d="M34.2968 4.13112C33.4965 3.30971 32.312 3.00369 31.2075 3.32581L5.45299 10.8152C4.28771 11.1389 3.46177 12.0683 3.23928 13.2488C3.01199 14.4504 3.80592 15.9756 4.84314 16.6134L12.896 21.5628C13.722 22.0702 14.788 21.943 15.4715 21.2536L24.6929 11.9748C25.1571 11.4916 25.9254 11.4916 26.3896 11.9748C26.8538 12.4419 26.8538 13.1989 26.3896 13.6821L17.1522 22.9625C16.4671 23.6502 16.339 24.7213 16.8433 25.5523L21.7637 33.686C22.3399 34.6523 23.3323 35.2 24.4208 35.2C24.5488 35.2 24.6929 35.2 24.8209 35.1838C26.0694 35.0228 27.0618 34.1692 27.43 32.9612L35.0651 7.23962C35.4013 6.1444 35.0971 4.95254 34.2968 4.13112" fill="#DCED31"/>
</svg>
