<svg width="40" height="40" viewBox="0 0 40 40" fill="none" xmlns="http://www.w3.org/2000/svg">
<path d="M29.4692 23.7122C29.0548 24.1138 28.8644 24.6946 28.9588 25.2642L30.3812 33.1362C30.5012 33.8034 30.2196 34.4786 29.6612 34.8642C29.114 35.2642 28.386 35.3122 27.7892 34.9922L20.7028 31.2962C20.4564 31.165 20.1828 31.0946 19.9028 31.0866H19.4692C19.3188 31.109 19.1716 31.157 19.0372 31.2306L11.9492 34.9442C11.5988 35.1202 11.202 35.1826 10.8132 35.1202C9.86603 34.941 9.23403 34.0386 9.38923 33.0866L10.8132 25.2146C10.9076 24.6402 10.7172 24.0562 10.3028 23.6482L4.52522 18.0482C4.04202 17.5794 3.87402 16.8754 4.09482 16.2402C4.30922 15.6066 4.85642 15.1442 5.51722 15.0402L13.4692 13.8866C14.074 13.8242 14.6052 13.4562 14.8772 12.9122L18.3812 5.72817C18.4644 5.56817 18.5716 5.42097 18.7012 5.29617L18.8452 5.18417C18.9204 5.10097 19.0068 5.03217 19.1028 4.97617L19.2772 4.91217L19.5492 4.80017H20.2228C20.8244 4.86257 21.354 5.22257 21.6308 5.76017L25.1812 12.9122C25.4372 13.4354 25.9348 13.7986 26.5092 13.8866L34.4612 15.0402C35.1332 15.1362 35.6948 15.6002 35.9172 16.2402C36.1268 16.8818 35.946 17.5858 35.4532 18.0482L29.4692 23.7122Z" fill="#DCED31"/>
</svg>
